/* XPM */
static char *_5e30acb330f456f90ff5f6fc44e6527BuKL4069O1wHZvgI[] = {
/* columns rows colors chars-per-pixel */
"64 64 26 1 ",
"  c black",
". c #00000A",
"X c #01000C",
"o c #020115",
"O c #020118",
"+ c #02011F",
"@ c #030122",
"# c #04022C",
"$ c #040233",
"% c #060348",
"& c #07034F",
"* c #080459",
"= c #09045F",
"- c #0A056B",
"; c #0B0678",
": c #0C0680",
"> c #0C0686",
", c #0E0794",
"< c #1008AA",
"1 c #1109B5",
"2 c #1209BD",
"3 c #1209C4",
"4 c #130ACF",
"5 c #140AD2",
"6 c #140ADA",
"7 c #150BDD",
/* pixels */
"7777777777777777777777777777777777777777777777777777777777777777",
"7777777777777777777777777777777777777777777777777777777777777777",
"7777777777777777777777777777777777777777777777777777777777777777",
"7777777777777777777777777777777777777777777777777777777777777777",
"7777777777777777777777777777777777777777777777777777777777777777",
"7777777777777777777777777777777777777777777777777777777777777777",
"7777777777777777777777777777777777777777777777777777777777777777",
"7777777777777777777777777777777777777777777777777777777777777777",
"7777777777777777777777777777777777777777777777777777777777777777",
"7777777777777777777777777777777777777777777777777777777777777777",
"7777777777777777777777777777777777777777777777777777777777777777",
"7777777777777777777777777777777777777777777777777777777777777777",
"7777777777777777777777777777777777777777777777777777777777777777",
"7777777777777777777777777777777777777777777777777777777777777777",
"7777777777777777777777777777777777777777777777777777777777777777",
"7777777777777777777777777777777777777777777777777777777777777777",
"777777777777777777776                     3777777777777777777777",
"777777777777777777776+++.                 3777777777777777777777",
"777777777777777777777777%  o222222222221  3777777777777777777777",
"777777777777777777777777%  O777777777775  3777777777777777777777",
"777777777777777777777777%  O777777777775  3777777777777777777777",
"777777777777777777777777%  O777777777775  3777777777777777777777",
"777777777777777777777777%  O777777777777447777777777777777777777",
"777777777777777777777777%  O777777777777777777777777777777777777",
"777777777777777777777777%  O77777777- %7777777777777777777777777",
"777777777777777777777777%  O77777777- %7777777777777777777777777",
"777777777777777777777777%  o33333333= %7777777777777777777777777",
"777777777777777777777777%             %7777777777777777777777777",
"777777777777777777777777%             %7777777777777777777777777",
"777777777777777777777777%  O77777777- %7777777777777777777777777",
"777777777777777777777777%  O77777777- %7777777777777777777777777",
"777777777777777777777777%  O77777777- %7777777777777777777777777",
"777777777777777777777777%  O77777777,&:7777777777777777777777777",
"777777777777777777777777%  O777777777777777777777777777777777777",
"777777777777777777777777%  O777777777777777777777777777777777777",
"777777777777777777777777%  O777777777777777777777777777777777777",
"777777777777777777777777%  O777777777777;*<777777777777777777777",
"777777777777777777777777%  O777777777777$ >777777777777777777777",
"777777777777777777777777%  O777777777777$ >777777777777777777777",
"777777777777777777777777%  o222222222222# >777777777777777777777",
"777777777777777777776@@@X                 >777777777777777777777",
"777777777777777777776                     >777777777777777777777",
"7777777777777777777777777777777777777777777777777777777777777777",
"7777777777777777777777777777777777777777777777777777777777777777",
"7777777777777777777777777777777777777777777777777777777777777777",
"7777777777777777777777777777777777777777777777777777777777777777",
"7777777777777777777777777777777777777777777777777777777777777777",
"7777777777777777777777777777777777777777777777777777777777777777",
"7777777777777777777777777777777777777777777777777777777777777777",
"7777777777777777777777777777777777777777777777777777777777777777",
"7777777777777777777777777777777777777777777777777777777777777777",
"7777777777777777777777777777777777777777777777777777777777777777",
"7777777777777777777777777777777777777777777777777777777777777777",
"7777777777777777777777777777777777777777777777777777777777777777",
"7777777777777777777777777777777777777777777777777777777777777777",
"7777777777777777777777777777777777777777777777777777777777777777",
"7777777777777777777777777777777777777777777777777777777777777777",
"7777777777777777777777777777777777777777777777777777777777777777",
"7777777777777777777777777777777777777777777777777777777777777777",
"7777777777777777777777777777777777777777777777777777777777777777",
"7777777777777777777777777777777777777777777777777777777777777777",
"7777777777777777777777777777777777777777777777777777777777777777",
"7777777777777777777777777777777777777777777777777777777777777777",
"7777777777777777777777777777777777777777777777777777777777777777"
};
