/* XPM */
static char *result[] = {
/* columns rows colors chars-per-pixel */
"64 64 133 2 ",
"   c #020202",
".  c #0B0C0C",
"X  c #0F1011",
"o  c #121414",
"O  c #161718",
"+  c #161819",
"@  c #1B1D1E",
"#  c #222526",
"$  c #292C2E",
"%  c #2A2E30",
"&  c #313536",
"*  c #323638",
"=  c #373C3E",
"-  c #383D3F",
";  c #3E4346",
":  c #44494B",
">  c #4D5355",
",  c #4D5558",
"<  c #51575B",
"1  c #555C5F",
"2  c #5A6163",
"3  c #5D6569",
"4  c #60676A",
"5  c #62696D",
"6  c #656E72",
"7  c #6A7276",
"8  c #6A7378",
"9  c #717A7E",
"0  c #87A301",
"q  c #88A201",
"w  c #8BA50A",
"e  c #8DA80B",
"r  c #92AC14",
"t  c #93B017",
"y  c #98B31C",
"u  c #97B221",
"i  c #9BB525",
"p  c #9BB629",
"a  c #A1BD2F",
"s  c #A3BE36",
"d  c #A5BE3C",
"f  c #A6C134",
"g  c #A9C43C",
"h  c #A9C343",
"j  c #ADC846",
"k  c #ABC649",
"l  c #ADC94D",
"z  c #B1CC55",
"x  c #B1C65A",
"c  c #B4CD59",
"v  c #B6D05D",
"b  c #BBD464",
"n  c #BAD568",
"m  c #BDD96E",
"M  c #BACD73",
"N  c #BED970",
"B  c #BCD17C",
"V  c #C0DB73",
"C  c #C4DE7A",
"Z  c #C6E17F",
"A  c #7D8486",
"S  c #77848A",
"D  c #7D8689",
"F  c #7F8B8E",
"G  c #7D8A90",
"H  c #808A8D",
"J  c #858F94",
"K  c #869195",
"L  c #839198",
"P  c #8A959A",
"I  c #929DA3",
"U  c #95A4AC",
"Y  c #99A6AB",
"T  c #9DAAAE",
"R  c #9EACB4",
"E  c #A2AEB4",
"W  c #A3B0B7",
"Q  c #A5B3BB",
"!  c #AAB9BE",
"~  c #BFD384",
"^  c #C5DF82",
"/  c #C6E183",
"(  c #C9E183",
")  c #C7E18B",
"_  c #C8E38C",
"`  c #CCE497",
"'  c #CDE59D",
"]  c #CCE4A7",
"[  c #CEE6AA",
"{  c #D0E7A3",
"}  c #D3E9AB",
"|  c #D3E9B3",
" . c #DAEEBC",
".. c #AEBBC0",
"X. c #B0BFC7",
"o. c #B4C2C5",
"O. c #B6C5CB",
"+. c #BACACF",
"@. c #BDCDD4",
"#. c #C3D4DC",
"$. c #C9DADE",
"%. c #DCEFC6",
"&. c #DCEFCB",
"*. c #DFF1D4",
"=. c #E0F1D0",
"-. c #E2F3DB",
";. c #C5D7E1",
":. c #CDDDE4",
">. c #CEE3EE",
",. c #D3E0E4",
"<. c #D3E4EC",
"1. c #D8E8EF",
"2. c #C6EBFE",
"3. c #CBEDFE",
"4. c #D3E7F2",
"5. c #D7E8F1",
"6. c #DAEBF4",
"7. c #D1EFFE",
"8. c #DDEEF9",
"9. c #D3F1FE",
"0. c #DBF2FF",
"q. c #E5F6E3",
"w. c #E7F7EB",
"e. c #E9F7ED",
"r. c #EAF8EE",
"t. c #E2F0F4",
"y. c #EBF9F6",
"u. c #E3F5FE",
"i. c #EAF7FD",
"p. c #E6F9FF",
"a. c #EBFAFE",
"s. c #F1FBFE",
"d. c #FEFFFF",
/* pixels */
"2.2.2.2.2.2.2.2.2.2.2.2.2.2.2.2.2.2.2.2.2.2.2.2.2.2.2.2.2.2.3.2.2.2.2.2.2.2.2.2.3.2.2.2.2.2.2.2.2.2.2.2.2.2.2.2.2.2.2.2.2.2.2.2.",
"2.2.2.2.2.2.3.2.2.2.2.2.2.2.2.2.2.2.2.2.2.2.2.2.2.2.2.2.2.2.2.2.2.2.2.2.2.2.2.2.2.2.2.2.2.2.2.2.2.2.2.2.2.2.2.2.2.2.2.2.2.2.2.2.",
"3.3.2.2.3.3.3.3.2.3.2.2.2.2.2.3.2.3.2.3.3.3.2.2.3.2.3.3.3.2.3.3.2.2.2.3.3.2.2.3.2.3.3.3.2.3.3.3.2.3.2.3.2.3.3.2.2.3.2.3.2.3.3.2.",
"3.3.3.2.3.2.3.2.2.3.3.3.3.3.3.2.2.3.3.3.3.2.3.3.2.3.3.2.3.3.0.u.p.u.9.3.3.2.3.3.3.2.2.2.2.2.3.2.3.3.3.2.3.3.3.3.3.2.3.2.3.3.3.2.",
"3.3.3.2.3.3.3.3.3.3.3.3.3.2.3.2.3.2.3.3.3.2.3.3.3.3.2.9.u.d.d.d.d.d.d.s.9.3.3.3.3.3.3.3.3.3.3.3.2.3.3.3.3.3.3.3.2.3.3.3.2.3.2.3.",
"3.3.3.2.3.3.3.3.3.3.3.3.3.3.3.3.3.3.3.3.3.3.3.3.3.3.9.a.d.d.d.d.d.d.d.d.s.8.3.3.3.3.3.3.3.3.3.3.3.3.3.3.3.3.3.3.3.3.3.2.3.3.3.3.",
"2.3.3.9.3.3.3.3.3.3.3.3.3.9.3.3.3.3.7.3.3.3.3.7.3.3.y.d.d.d.d.d.d.d.d.d.d.s.0.3.3.3.3.3.3.3.3.9.3.3.3.3.3.3.3.9.3.3.3.9.3.3.3.3.",
"3.3.3.3.3.7.3.3.7.3.3.3.3.3.3.3.7.3.3.3.3.3.3.3.3.9.d.d.d.d.d.d.d.d.d.d.d.d.y.3.9.3.3.3.3.3.3.3.3.3.3.3.3.3.3.3.3.3.3.3.9.3.3.3.",
"3.3.3.3.3.9.9.3.3.3.3.9.3.3.3.3.3.7.3.7.8.i.a.a.8.a.d.d.d.d.d.d.d.d.d.d.d.d.d.7.3.3.7.7.3.3.3.3.9.3.3.9.3.3.3.9.9.3.3.3.9.3.3.9.",
"9.9.9.9.9.3.9.9.9.9.9.9.9.9.9.9.9.7.9.i.d.d.d.d.d.d.d.d.d.d.d.d.d.d.d.d.d.d.d.u.7.7.3.7.7.7.9.9.3.9.9.3.9.9.9.3.9.9.3.9.9.9.9.3.",
"9.9.9.9.9.3.9.3.7.7.9.3.9.3.9.9.3.9.u.d.d.d.d.d.d.d.d.d.d.d.d.d.d.d.d.d.d.d.d.u.7.7.7.7.7.7.7.9.9.9.9.9.9.9.3.9.3.3.9.9.9.9.9.3.",
"9.3.9.3.9.9.9.3.7.9.3.9.9.9.9.3.9.3.d.d.d.d.d.d.d.d.d.d.d.d.d.d.d.d.d.d.d.d.d.a.s.d.d.s.9.7.7.9.9.3.3.9.9.3.9.9.9.9.9.3.3.3.9.9.",
"3.9.9.9.9.3.9.9.9.3.9.9.9.3.9.3.7.0.d.d.d.d.d.d.d.d.d.d.d.d.d.d.d.d.d.d.d.d.d.d.d.d.d.d.s.9.7.7.9.9.3.9.9.9.9.3.3.9.9.9.9.9.9.3.",
"9.9.9.9.9.9.9.9.9.9.9.9.9.9.9.9.9.8.d.d.d.d.d.d.d.d.d.d.d.d.d.d.d.d.d.d.d.d.d.d.d.d.d.d.d.0.9.9.9.9.9.9.9.9.9.9.9.9.9.0.9.9.9.9.",
"9.9.9.9.9.9.9.9.9.9.9.9.9.9.9.9.9.0.d.d.d.d.d.d.d.d.d.d.d.d.d.d.d.d.d.d.d.d.d.d.d.d.d.d.d.u.9.9.9.9.9.9.9.0.9.9.9.9.9.9.9.9.9.9.",
"9.9.9.9.0.9.9.9.9.9.9.9.0.9.9.9.9.9.a.d.d.d.d.d.d.d.d.d.d.d.d.d.d.d.d.d.d.d.d.d.d.d.d.d.d.0.9.9.9.9.9.9.9.9.9.9.9.9.9.9.9.9.9.9.",
"9.0.0.9.9.0.9.9.9.0.9.9.0.9.9.9.0.9.0.s.d.d.d.d.d.d.d.d.d.d.d.d.d.d.d.d.d.d.d.d.d.d.d.d.a.0.9.0.0.0.0.9.0.9.0.9.9.0.9.0.9.0.9.9.",
"0.9.9.0.9.9.0.0.0.9.0.9.9.0.0.9.9.0.9.0.y.s.s.d.d.s.d.s.s.d.s.d.d.d.s.d.d.s.d.s.d.d.s.i.0.9.0.9.9.9.0.9.0.9.9.0.0.9.0.9.0.9.9.0.",
"0.0.9.0.0.0.9.0.9.0.0.0.0.9.0.0.0.0.0.0.9.8.0.0.0.0.0.0.0.0.0.0.0.9.0.0.0.0.0.0.0.9.0.9.0.8.9.0.0.9.9.9.0.9.9.0.9.0.9.9.9.0.0.0.",
"9.0.0.0.9.0.9.0.0.0.9.9.0.0.0.9.0.9.9.0.0.0.0.0.0.0.9.0.0.0.0.9.0.0.9.0.0.9.0.0.0.0.0.0.0.9.0.0.0.0.0.0.9.0.0.0.0.0.0.0.0.0.9.0.",
"0.0.0.0.0.9.0.0.0.0.9.0.0.0.8.8.9.0.0.0.0.0.0.0.0.0.0.0.0.9.0.0.0.0.0.0.0.0.0.9.0.0.0.9.0.0.0.9.0.9.0.0.0.0.0.9.0.0.9.0.0.9.0.0.",
"0.0.9.0.0.0.0.0.0.0.0.0.0.0.0.0.0.0.0.0.0.9.9.0.0.0.0.9.0.0.0.0.0.9.0.9.0.0.0.0.0.9.0.0.0.0.0.0.0.0.0.0.0.0.0.0.0.0.0.0.0.0.0.0.",
"0.0.0.0.0.0.0.0.0.0.0.0.0.0.0.0.0.0.0.0.0.0.0.0.0.0.0.0.0.0.0.0.0.0.0.0.0.0.0.0.0.0.0.0.0.0.0.0.0.0.0.0.0.0.0.0.0.0.0.0.0.0.0.0.",
"0.0.0.0.0.0.0.0.0.0.0.0.0.0.0.0.0.0.0.0.0.0.0.0.0.0.0.0.0.0.0.0.0.0.0.0.0.0.0.0.0.0.0.0.0.0.0.0.0.0.0.0.0.0.0.0.0.0.0.0.0.0.0.0.",
"0.u.0.0.0.0.u.0.0.0.u.0.8.0.0.0.0.0.0.u.0.>.S U 0.0.0.0.0.0.0.L G #.0.u.0.0.0.0.#.S R 0.0.0.0.0.0.0.0.0.0.8.0.0.0.0.0.0.0.u.0.0.",
"0.0.u.0.0.0.0.0.u.8.u.0.u.0.u.0.u.0.0.0.8.;.. % 8.0.0.u.0.u.@.+ . 8 0.0.0.u.0.u.U   6 0.8.u.u.0.u.8.u.u.0.u.0.u.0.0.0.u.u.0.u.0.",
"u.0.0.u.0.u.0.0.0.u.0.u.0.0.0.u.u.0.u.u.0.<.-   4.0.u.0.0.0.Q .   , 6.u.u.0.u.8.>   Q 0.u.u.0.0.0.u.0.0.u.0.0.0.0.p.0.0.0.u.0.u.",
"u.u.0.p.u.u.u.u.u.0.u.u.u.u.u.0.u.u.0.u.u.6.1   E u.u.u.u.u.3     # @.0.u.u.0.8.* . ;.u.u.0.u.u.0.u.u.u.u.u.u.u.p.0.p.0.u.0.u.u.",
"u.u.u.u.u.u.u.u.u.u.0.u.u.u.u.u.u.u.u.u.0.0.J   5 u.u.u.u.<.;   O . Q u.u.u.u.4.. % <.u.u.0.0.u.u.u.u.u.u.u.u.u.u.u.0.u.u.u.u.u.",
"u.u.0.u.u.u.u.u.u.u.u.u.u.u.u.u.0.u.u.u.u.u.W o X u.0.u.0.#.$   8   6 0.u.u.u.X.  > 1.u.u.u.u.u.u.u.u.u.u.u.u.8.u.u.u.u.u.u.u.0.",
"0.u.u.u.u.u.u.0.0.u.u.u.0.u.u.u.u.u.u.u.u.u.#.#   <.u.u.u.E   3 $.  ; 8.u.u.u.6   J u.u.u.u.u.u.u.u.0.u.u.u.0.u.u.u.u.u.u.u.u.u.",
"p.u.u.u.u.u.u.u.u.u.u.u.u.u.u.u.u.u.u.u.u.u.,.*   I u.u.t.9   I <.&   6.u.u.u.* X E u.u.u.u.u.u.u.u.u.u.u.u.u.u.u.u.u.u.u.u.u.u.",
"u.u.u.u.p.u.u.u.p.u.p.u.u.u.u.u.u.u.u.u.u.u.u.<   5 u.u.0.* o :.8.6   U u.u.8.  # @.u.u.u.u.u.u.u.i.u.u.u.u.u.u.u.u.u.u.u.u.u.i.",
"p.p.p.u.p.u.p.u.u.u.p.u.p.p.u.u.u.p.p.p.p.p.u.Y   & u.u.6.  = 1.u.P   7 u.u.T   ; 0.p.p.u.u.p.u.u.u.i.u.p.u.p.p.p.u.p.p.u.u.u.u.",
"u.p.u.p.u.u.u.p.u.p.u.u.u.u.p.p.u.p.u.u.u.p.p.O.  # $.u.H   F u.u.+.#   u.u.D   1 p.p.u.p.u.p.p.u.p.u.u.u.u.u.u.u.p.u.u.p.u.p.u.",
"p.u.p.u.p.u.p.p.u.p.p.p.u.p.p.p.u.p.p.p.u.u.p.p.X O ! p.: X T u.i.:.&   +.u.&   Y p.p.p.p.p.u.u.u.u.p.p.p.p.p.p.p.u.p.u.u.p.p.p.",
"p.p.p.p.p.p.p.p.p.p.p.p.p.p.p.p.p.p.p.p.p.p.p.p.2   H p.  # +.p.p.p.,   D $.#   @.p.p.p.p.p.p.p.p.p.p.p.p.p.p.p.p.p.p.p.p.p.p.p.",
"p.p.p.p.p.p.p.p.p.p.p.p.p.p.p.p.p.p.p.p.p.i.p.p.K   7 T   : p.p.p.a.T   & o.O X p.p.p.p.p.p.p.p.p.p.p.p.p.p.p.p.p.p.p.p.p.p.p.p.",
"p.a.p.p.p.i.p.p.p.p.p.p.p.p.p.p.p.p.p.p.p.u.p.y.1.  & 4   6 i.p.p.p.:.. @ 4 . : p.i.p.p.p.p.p.p.p.p.p.p.a.p.p.p.a.p.p.p.p.p.p.p.",
"p.p.p.p.p.p.i.p.p.a.p.p.i.p.p.p.p.p.p.a.i.p.p.u.p.@ O . . ..p.p.p.p.i.& . O   K p.i.p.p.p.a.p.p.p.a.p.p.p.p.a.p.p.p.p.i.p.p.p.a.",
"p.a.p.p.p.a.p.p.p.p.a.p.p.a.p.p.i.a.p.p.p.p.a.p.y.>     . 5.i.i.i.a.p.A       <.i.a.p.i.a.p.p.a.p.a.p.p.p.p.a.a.a.p.p.p.a.p.p.a.",
"a.a.a.a.a.a.a.a.a.a.a.a.a.a.a.a.a.a.a.a.a.a.a.a.i.A     2 a.a.a.a.a.a.8.    o y.i.i.a.a.a.a.a.a.a.a.a.a.a.a.a.a.a.a.a.a.a.a.a.a.",
"a.a.a.a.a.a.a.a.a.a.a.a.a.a.a.a.a.a.a.a.a.a.a.a.a.,.H D o.a.a.a.a.a.a.a.H A E a.a.a.a.a.a.a.a.a.a.a.a.a.a.a.a.a.a.a.a.a.a.a.a.a.",
"a.a.a.a.a.a.a.a.a.a.p.a.a.a.a.a.a.a.a.a.a.a.a.a.a.a.a.a.a.a.a.a.a.a.a.a.a.a.a.a.a.a.a.a.a.a.a.a.a.a.a.a.a.a.a.a.a.a.a.a.a.a.a.a.",
"%.] ] ] [ [ | %.&.*.q.8.a.p.i.p.a.i.a.i.a.a.a.a.a.a.a.a.a.a.a.a.a.a.a.a.a.a.a.a.a.a.a.a.a.a.a.a.a.a.a.a.a.a.a.a.a.a.a.a.a.a.a.a.",
"~ ) ^ ^ / ^ ^ ^ ^ ^ / / / / [ &.q.r.y.i.a.i.a.a.a.a.s.a.s.a.a.a.a.a.a.a.a.s.s.a.a.a.a.s.a.a.s.a.a.a.a.a.s.a.a.a.a.a.s.a.a.a.a.a.",
"/ / / / ^ ^ ^ ^ / / / ~ / ^ ^ ^ / / ` | &.*.-.w.r.y.y.a.a.a.a.a.a.a.a.a.a.a.s.a.a.a.a.a.s.s.a.y.a.s.a.s.s.a.a.a.a.s.s.y.a.a.a.a.",
"^ ^ ^ ^ ^ ^ ^ ^ / / / / ^ / ^ ^ / / ^ ^ / / _ ` ' { } } } } | | | | |  .&.-.w.y.a.a.s.a.a.a.a.s.a.a.a.a.a.a.s.s.a.a.a.a.s.s.a.a.",
"^ ^ ^ ^ / Z / Z / / ^ ^ ^ ^ ^ C ^ ^ ^ ^ ^ ^ ^ ^ / / / / / / ^ ^ ^ ^ ^ ^ ^ _ _ _ ' &.y.a.s.a.s.a.s.a.s.s.a.s.a.s.a.s.a.s.a.a.s.a.",
"/ ^ ^ ^ / / / / / C / / ^ ^ ^ / ^ ^ ^ ^ ^ ^ ^ ^ C ^ ^ ^ ^ / C ^ ^ C ^ ^ ^ / / / / / / ' =.e.a.a.s.s.s.s.s.s.s.s.s.s.s.s.s.s.s.s.",
"/ / / / / / / / / / / / / / / / / / / ( ( / / ^ C N b z k k k h h h k k k l z v n m C C Z `  .-.r.s.s.a.s.s.s.s.s.s.a.s.s.s.s.s.",
"/ / / / ( / ( ( / / / / ( / ( / / ( / ( / V z a u t e q q q q q q q q q q q q e r r u p f z N ^ { %.q.s.s.s.s.s.s.s.s.s.s.s.s.s.",
"/ / ( ( ( ( ( ( ( ( ( ( ( ( ( ( ^ ( ^ b p 0 q q q q q q 0 q q q q q q q q q q q q q q q q q w w i j n _  .q.y.s.s.s.s.s.s.s.s.s.",
"/ / ( ( ( ( ( ( ( ( ( ( ( ( ( Z N z y q q q q q q q q q q q q q q q q q q q q q q q q q q q q q q q q q w r p d x M B ~ ^ ~ ~ M ",
"/ ( ( ( ( ( ( ( ( ( ( ( ( V c s r q q q q q q q q q q q q q q q q q q q q q q q q q q q q q q q q q q q q q q q q q q q q q q q ",
"/ ( ( ( ( ( ( ( ( C b l p t e q q q q q q q q 0 q q q q q q q q q q q q q q q q q q q q q q q q q q q q q q q q q q q q q q q q ",
"i f h g g g a y e q q q q q q q 0 q q q q q q q q q q q q q q q q q q q q q q q q q q q q q q q q q q q q q q q q q q q q q q q ",
"q q q q q q q q q q q q q q q q q q q q q q q q q q q q q q q q q q q q q q q q q q q q q q q q q q q q q q q q q q q q q q q q ",
"q q q q q q q q q q q q q q q q q q q q q q q q q q q q q q q q q q q q q q q q q q q q q q q q q q q q q q q q q q q q q q q q ",
"q q q q q q q q q q q q q q q q q q q q q q q q q q q q q q q q q q q q q q q q q q q q q q q q q q q q q q q q q q q q q q q q ",
"q q q q q q q q q q q q q q q q q q q q q q q q q q q q q q q q q q q q q q q q q q q q q q q q q q q q q q q q q q q q q q q q ",
"q q q q q q q q q q q q q q q q q q q q q q q q q q q q q q q q q q q q q q q q q q q q q q q q q q q q q q q q q q q q q q q q ",
"q q q q q q q q q q q q q q q q q q q q q q q q q q q q q q q q q q q q q q q q q q q q q q q q q q q q q q q q q q q q q q q q ",
"q q q q q q q q q q q q q q q q q q q q q q q q q q q q q q q q q q q q q q q q q q q q q q q q q q q q q q q q q q q q q q q q "
};
