/* XPM */
static char *result[] = {
/* columns rows colors chars-per-pixel */
"64 64 178 2 ",
"   c #2C2F31",
".  c #2B3032",
"X  c #313436",
"o  c #32373A",
"O  c #33383B",
"+  c #3A3F42",
"@  c #0A3E78",
"#  c #3F4548",
"$  c #3B4043",
"%  c #0E4177",
"&  c #0C427C",
"*  c #11447D",
"=  c #184A7F",
"-  c #41464A",
";  c #43484B",
":  c #424647",
">  c #474E52",
",  c #484F52",
"<  c #4B5154",
"1  c #4F5559",
"2  c #51565A",
"3  c #555C5E",
"4  c #5D5D5D",
"5  c #565C61",
"6  c #595F63",
"7  c #5A6165",
"8  c #5E656A",
"9  c #5F686E",
"0  c #656565",
"q  c #61676C",
"w  c #62696E",
"e  c #6B6B6B",
"r  c #656C72",
"t  c #686E74",
"y  c #626770",
"u  c #677075",
"i  c #6A7176",
"p  c #6D747A",
"a  c #71777D",
"s  c #71787C",
"d  c #ED1E2B",
"f  c #F01D2A",
"g  c #ED212C",
"h  c #F0252F",
"j  c #EC2C35",
"k  c #EE333C",
"l  c #ED3B43",
"z  c #ED3E48",
"x  c #EF474D",
"c  c #ED4B53",
"v  c #EF5159",
"b  c #F1454C",
"n  c #EE5D63",
"m  c #EF6168",
"M  c #F1666C",
"N  c #F16D73",
"B  c #F17176",
"V  c #F1787C",
"C  c #194B82",
"Z  c #214F85",
"A  c #235185",
"S  c #275689",
"D  c #2E5C8C",
"F  c #2A5689",
"G  c #305B8A",
"H  c #38628F",
"J  c #3B6593",
"K  c #356192",
"L  c #436B97",
"P  c #4A6E97",
"I  c #4B719B",
"U  c #757C82",
"Y  c #787F83",
"T  c #666B90",
"R  c #647A9E",
"E  c #5278A1",
"W  c #5A7EA3",
"Q  c #5B7FA8",
"!  c #807291",
"~  c #A47D93",
"^  c #DB7D86",
"/  c #F17F85",
"(  c #7C8286",
")  c #7B8489",
"_  c #5F81A7",
"`  c #6283A7",
"'  c #6384A8",
"]  c #6A89AB",
"[  c #728FAF",
"{  c #7593B3",
"}  c #7B98B7",
"|  c #858686",
" . c #848788",
".. c #83898B",
"X. c #8C8C8C",
"o. c #898F92",
"O. c #8E959A",
"+. c #959595",
"@. c #91979E",
"#. c #91999D",
"$. c #9A9C9C",
"%. c #969EA2",
"&. c #989EA2",
"*. c #839DBA",
"=. c #829DB7",
"-. c #9BA1A6",
";. c #9DA5A9",
":. c #9FA8AB",
">. c #89A2BD",
",. c #84A1BA",
"<. c #A3A3A3",
"1. c #A1A7A9",
"2. c #A2AAAE",
"3. c #ACACAC",
"4. c #A5ADB1",
"5. c #AFB3B5",
"6. c #B6B6B6",
"7. c #B5B8B7",
"8. c #BBBDBD",
"9. c #B4B8BB",
"0. c #F3888C",
"q. c #EC8D94",
"w. c #F38C91",
"e. c #F49A9E",
"r. c #F59DA2",
"t. c #DCA4AD",
"y. c #F4A3A7",
"u. c #F5AAAD",
"i. c #F6ACB1",
"p. c #F6B1B4",
"a. c #F6B6B9",
"s. c #F7BABB",
"d. c #93ABC4",
"f. c #9CB3C9",
"g. c #A6B8CD",
"h. c #AABCCE",
"j. c #A3B7CB",
"k. c #B9BDC0",
"l. c #ACBED0",
"z. c #F8BFC1",
"x. c #AFC1D1",
"c. c #B3C3D4",
"v. c #B8C8D7",
"b. c #B7C0CA",
"n. c #C2C5C4",
"m. c #CACBCC",
"M. c #C6CACB",
"N. c #CCCFD1",
"B. c #C2CFDC",
"V. c #C3D0DE",
"C. c #CDD0D3",
"Z. c #DBDCDD",
"A. c #D2D6D8",
"S. c #F7C3C6",
"D. c #F9C8CA",
"F. c #F9CED0",
"G. c #F9D6D7",
"H. c #FADCDD",
"J. c #CED9E5",
"K. c #C9D4E1",
"L. c #D3DDE6",
"P. c #DEDFE0",
"I. c #DDE3EC",
"U. c #E2E2E2",
"Y. c #E1E7EE",
"T. c #E5E9ED",
"R. c #FBECEC",
"E. c #FBE3E3",
"W. c #E9EDF1",
"Q. c #FCEFF0",
"!. c #ECF1F5",
"~. c #F1F4F7",
"^. c #FDF4F4",
"/. c #F3F6F8",
"(. c #F6F9FA",
"). c #FFFFFF",
"_. c #FEF7F8",
"`. c #00FFFF",
/* pixels */
"X.X.| U.).).).).).).).).(.).(.).).).).).).).).).).).E.E.).).).).).R.H.).).).).).).).).).).).).).).).).).).).).).).).).m.+.+.+.+.",
"| | | U.).).).).R.t.L Z F C Z Z =.).).).).).).).).).M n _.).).).)./ v ).).).).).).).).).).).).).).).).).).(.).).).).).n.X.X.X.X.",
"-.$.$.T.).).).).S.~ * v.L.@ K.d.d.).).S.a.y.F.s.u._.a.u.Q.u.a.u.).S.y.~.x.c.>.Y.!.g.g.T.B.{ h.).~.,.} ~.J.d.h._.).).).m.$.%.&.$.",
"1.2.1.T.).).).).p.Y E _.L.} ).] V.).R.g k k h l g p.x w.e.g b f F.c 0.=.@ J C ` *.% ` { * { & l.P D ` j.A K & d.).).).A.2.4.2.2.",
"( ( Y P.).).).).y.T f.^.!.Y._.I Y.).G.d w.N x u.j u.k e./ x p.g G.k y._ C K._ I ' J Y.L C Q F >.% h.~.` D J.J ] ).).).8.U U U U ",
"i u i Z.).).).).q.R L.l.).l.~.K (.).p.g z.M M s.k u.j u.v B a.g H.g z.J * d.J { L ] (.L D c.j.Y.% =.V.E S j.F d.).).).6.r r r r ",
"i i i Z.).).).Q.^ Q j.' L.G J.I ).).u.B H.B p.p.B s.M D.M a.u.B G.v Q.= A L _ J.W c.).l.J K { ).>.* { B.I S ' !.(.).).5.9 8 t u ",
"p p p Z.).).).R.t.[ ] ` [ W { V.).)._._._.^._._._._._._.Q.).^._._.(.!.C } (.(.(.~.).).)./.T.(.).).=.(.).~.Y.(.).).).).5.w w i i ",
"+.+.+.m.U.U.U.U.U.U.U.U.U.U.U.U.U.U.U.U.U.U.U.U.U.U.U.U.U.U.U.U.U.U.P.b.Z.U.U.U.U.U.U.U.U.U.U.U.U.P.U.U.U.U.U.U.U.T.U.8.$.$.<.0 ",
"$.s |  .|  .|  .| |  . . . . . ...) ..X. . .....X. .X. .X. . . . . . . . . . . ...X. . . . .X. . . . . .X..... . .|  .Y 0 0 n.0 ",
"$.e 4.4.2.4.4.4.2.4.4.4.4.4.4.4.4.2.4.4.4.4.4.4.2.4.2.4.4.4.2.4.2.3.4.4.4.2.4.4.2.2.4.4.4.4.4.4.4.4.4.4.4.4.4.4.3.2.4.O.O   n.0 ",
"<.e 4.%.( U Y Y Y Y U U U U Y U U ( U s s s s p p p p p p p p p ( Y Y ( Y Y Y Y ( ( ( s a a a a a a a a a a s p U U U r O X n.0 ",
"<.e 5.#.a p t i p p u p i p i u u u u r w w 8 8 8 8 8 8 9 8 8 9 u i i i i i i i u i i w w y y y y q y y 9 9 w w r r t 7 O   n.e ",
"3.e 5.#.p i i i u u u u i i p r u 8 8 8 8 8 8 8 8 8 9 9 9 w 9 w w w w w w w w 0 w i p r t t i p t 8 8 q 8 8 9 8 8 9 r 7 O X n.0 ",
"3.i 4.#.p p i 8 1 1 1 2 2 1 1 < < < , , > < , < , < < < 1 < < 1 < < < < < < < < < 1 2 1 1 2 2 2 1 < , , > < < < 7 8 t 0 O   n.e ",
"3.e 4.#.p i i < . .   . . . . . . . . . . . . . . . . . . . . . . . . .         . . .     . . . . . . . . . . . 1 8 t 0 O   n.0 ",
"3.0 4.#.s i i < . `.`.`.`.`.`.`.`.`.`.`.`.`.`.`.`.`.`.`.`.`.i i .   `.`.`.`.`.`.`.`.`.`.`.`.`.`.`.`.`.`.`.`.) o.t 8 t 7 O   n.0 ",
"3.e 4.#.s i i < . `.`.`.`.`.`.`.`.`.`.`.`.`.`.`.`.`.`.`.`.`.) ... . `.`.`.`.`.`.`.`.`.`.`.`.`.`.`.`.`.`.`.`.-.4.s 8 t 8 O   n.0 ",
"3.e 3.#.s i i < . `.`.`.`.`.`.`.`.`.`.`.`.`.`.`.`.`.`.`.`.`...... . `.`.`.`.`.`.`.`.`.`.`.`.`.`.`.`.`.`.`.`.-.4.U r t 8 o   n.e ",
"3.0 4.#.s i i < . `.`.`.`.`.`.`.`.`.`.`.`.`.`.`.`.`.`.`.`.`.#.... . `.`.`.`.`.`.`.`.`.`.`.`.`.`.`.`.`.`.`.`.-.4.U 9 t 8 o X n.0 ",
"3.e 4.#.s i i < . `.`.`.`.`.`.`.`.`.`.`.`.`.`.`.`.`.`.`.`.).1.) . . `.`.`.`.`.`.`.`.`.`.`.`.`.`.`.`.`.`.`.`.-.4.U y t 8 o   n.0 ",
"5.e 4.#.p i i < . `.`.`.`.`.`.`.`.`.`.`.`.`.`.`.`.`.`.).).).2.... . `.`.`.`.`.`.`.`.`.`.`.`.`.`.`.`.`.`.`.`.#.4.U w t 8 O   n.0 ",
"3.e 3.#.s i i < . `.`.`.`.`.`.`.`.`.`.`.`.`.`.`.`.).).).).).1.... . `.`.`.`.`.`.`.`.`.`.`.`.`.`.`.`.`.`.`.`.@.4.U w t 8 O   n.e ",
"3.e 5.+.p i i < . `.`.`.`.`.`.`.`.`.`.`.`.`.`.).).).).).).).#.... . `.`.`.`.`.`.`.`.`.`.`.`.`.`.`.`.`.`.`.`.@.4.U y e 7 O   n.0 ",
"6.e 4.#.s i i <   `.`.`.`.`.`.`.`.`.`.`.`.).).).).).).).).).1.... . `.`.`.`.`.`.`.`.`.`.`.`.`.`.`.`.`.`.`.`.%.4.U q r 6 o   n.q ",
"3.e 4.#.p i i <   `.`.`.`.`.`.`.`.`.`.).).).).).).).).).).).%.... . `.`.`.`.`.`.`.`.`.`.`.`.`.`.`.`.`.`.`.`.-.4.U y y 6 o   n.0 ",
"3.e 4.O.r w w > . `.`.`.`.`.`.`.`.`.).).).).).).).).).).).`...) . . `.`.`.`.`.`.`.`.`.`.`.`.`.`.`.`.`.`.`.`.%.4.U y y 6 O   n.0 ",
"6.e 4.O.r q r > . `.`.`.`.`.`.`.).).).).).).).).).).).`.`.`.o.o.. . `.`.`.`.`.`.`.`.`.`.`.`.`.`.`.`.`.`.`.`.&.4.Y t t 8 O   n.e ",
"3.e 5.O.r w i < . `.`.`.`.`.`.).).).).).).`.).).).`.`.`.`.`...) . o `.`.`.`.`.`.`.`.`.`.`.`.`.`.`.`.`.`.`.`.:.4.) i i q O   n.0 ",
"3.e 4.O.i r r , . `.`.`.`.).).).).).).`.).).).`.`.`.`.`.`.`...... o `.`.`.`.`.`.`.`.`.`.`.`.`.`.`.`.`.`.`.`.%.4.Y t i q O   M.0 ",
"3.e 5.#.p i r > . `.`.).).).).).).`.).).).).`.`.`.`.`.`.`.`...) . . `.`.`.`.`.`.`.`.`.`.`.`.`.`.`.`.`.`.`.`.O.4.U r t q O   n.0 ",
"3.e 4.#.s i i < . M.).).).).).`.).).).).`.`.`.`.`.`.`.`.`.`...... o `.`.`.`.`.`.`.`.`.`.`.`.`.`.`.`.`.`.`.`.O.4.) p p q O X n.0 ",
"6.e 4.#.p i i < . m.).).).`.`.).).).`.`.`.`.`.`.`.`.`.`.`.`.o.) . o `.`.`.`.`.`.`.`.`.`.`.`.`.`.`.`.`.`.`.`.O.4.( i i 8 o   n.0 ",
"3.e 4.#.a p i < . m.).`.`.).).).`.`.`.`.`.`.`.`.`.`.`.`.`.`.) o.  o `.`.`.`.`.`.`.`.`.`.`.`.`.`.`.`.`.`.`.`.@.4.( i i 8 o   n.0 ",
"5.e 5.O.p i w < . <.`.).).).`.`.`.`.`.`.`.`.`.`.`.`.`.`.`.`.o.) . o `.`.`.`.`.`.`.`.`.`.`.`.`.`.`.`.`.`.`.`.O.4.) i i 0 O X n.e ",
"3.e 4.O.p t r < . n.).).`.`.`.`.`.`.`.`.`.`.`.`.`.`.`.`.`.`.) ... . `.`.`.`.`.`.`.`.`.`.`.`.`.`.`.`.`.`.`.`.O.4.( i i q O . n.0 ",
"6.e 4.@.t y i < . M.).`.`.`.`.`.`.`.`.`.`.`.`.`.`.`.`.`.`.`.o.) . X `.`.`.`.`.`.`.`.`.`.`.`.`.`.`.`.`.`.`.`.O.4.) i p 8 O   n.0 ",
"3.e 4.O.t y i 1 . `.`.`.`.`.`.`.`.`.`.`.`.`.`.`.`.`.`.`.`.`.) o.. . `.`.`.`.`.`.`.`.`.`.`.`.`.`.`.`.`.`.`.`.9.4.Y r y 6 X   n.0 ",
"6.e 4.@.t y i < . `.`.`.`.`.`.`.`.`.`.`.`.`.`.`.`.`.`.`.`.`.o.) .   `.`.`.`.`.`.`.`.`.`.`.`.`.`.`.`.`.`.).).M.4.U y 8 2 O   n.0 ",
"6.e 4.O.t w r , . `.`.`.`.`.`.`.`.`.`.`.`.`.`.`.`.`.`.`.`.`.) o..   `.`.`.`.`.`.`.`.`.`.`.`.`.`.`.`.).).).).C.4.U r 8 3 o   n.e ",
"3.e 4.@.t q r > . `.`.`.`.`.`.`.`.`.`.`.`.`.`.`.`.`.`.`.`.`.o.) . . `.`.`.`.`.`.`.`.`.`.`.`.`.`.).).).).).).M.4.( r 9 5 o   b.0 ",
"6.e 4.O.t q y > . `.`.`.`.`.`.`.`.`.`.`.`.`.`.`.`.`.`.`.`.`.) ... X `.`.`.`.`.`.`.`.`.`.`.`.`.).).).).).).).M.4.( u 9 2 o   n.0 ",
"3.e 4.O.t 8 r > . `.`.`.`.`.`.`.`.`.`.`.`.`.`.`.`.`.`.`.`.`.o.) . . `.`.`.`.`.`.`.`.`.`.`.).).).).).).).).).N.4.( i r 5 O   n.e ",
"6.e 4.O.u r 9 > . `.`.`.`.`.`.`.`.`.`.`.`.`.`.`.`.`.`.`.`.`.) o.    `.`.`.`.`.`.`.`.`.).).).).).).).).).).).9.4.( i r 7 O   n.0 ",
"5.e 4.O.u r y > . `.`.`.`.`.`.`.`.`.`.`.`.`.`.`.`.`.`.`.`.`.o.) . . `.`.`.`.`.`.`.`.).).).).).).`.).).).`.`.-.4.( i w 7 O   n.0 ",
"1.t 4.O.t y y > . `.`.`.`.`.`.`.`.`.`.`.`.`.`.`.`.`.`.`.`.`.) ... . `.`.`.`.`.`.).).).).).).`.).).).`.`.`.`.&.4.( i r 7 O   n.0 ",
"3.e 4.@.u y r > . `.`.`.`.`.`.`.`.`.`.`.`.`.`.`.`.`.`.`.`.`.) o.. . `.`.`.`.).).).).).).`.).).).).`.`.`.`.`.O.4.( i w 3 O   n.0 ",
"<.e 4.O.r y u > . `.`.`.`.`.`.`.`.`.`.`.`.`.`.`.`.`.`.`.`.`.) o.. . `.`.).).).).).).`.).).).).`.`.`.`.`.`.`.-.3.( i w 4 O   n.e ",
"<.e 4.O.i r u < . `.`.`.`.`.`.`.`.`.`.`.`.`.`.`.`.`.`.`.`.`.o.)   : ).).).).).).`.).).).).`.`.`.`.`.`.`.`.`.-.4.Y t w 4 X . n.0 ",
"<.e 4.@.p u u < . `.`.`.`.`.`.`.`.`.`.`.`.`.`.`.`.`.`.`.`.`.) o.. 0 ).).).).).`.).).).`.`.`.`.`.`.`.`.`.`.`.O.4.U w w 3 o . n.e ",
"<.w 4.#.p u T < . `.`.`.`.`.`.`.`.`.`.`.`.`.`.`.`.`.`.`.`.`.o.) . 7 ).).).`.).).).`.`.`.`.`.`.`.`.`.`.`.`.`.O.4.U 9 w 3 o   n.e ",
"<.0 5.#.p u u 1 . `.`.`.`.`.`.`.`.`.`.`.`.`.`.`.`.`.`.`.`.`.) ... 7 ).`.).).).`.`.`.`.`.`.`.`.`.`.`.`.`.`.`.o.2.U 8 q 3 o   n.e ",
"$.0 4.#.p i u < . `.`.`.`.`.`.`.`.`.`.`.`.`.`.`.`.`.`.`.`.`...... ; `.).).).`.`.`.`.`.`.`.`.`.`.`.`.`.`.`.`.O.4.s 9 q 5 o   n.e ",
"<.e 4.#.p i u < . `.`.`.`.`.`.`.`.`.`.`.`.`.`.`.`.`.`.`.`.`.) ... 7 ).).`.`.`.`.`.`.`.`.`.`.`.`.`.`.`.`.`.`.O.4.s w w 3 o   n.e ",
"<.e 3.#.s i i < . `.`.`.`.`.`.`.`.`.`.`.`.`.`.`.`.`.`.`.`.`.....  < `.`.`.`.`.`.`.`.`.`.`.`.`.`.`.`.`.`.`.`.O.4.( 9 q 3 o   n.e ",
"<.e 4.#.p i i < . `.`.`.`.`.`.`.`.`.`.`.`.`.`.`.`.`.`.`.`.`.-.#.i s -.-.1.2.2.1.2.2.2.-.&.:.4.%.&.-.-.&.-.&.&.4.s 9 0 3 o   n.e ",
"<.e 4.O.i t i 2 + i ;.;.;.;.;.;.;.:.;.;.;.;.;.;.;.%.-.;.;.;.:.-.;.;.;.;.;.;.;.;.;.;.;.-.;.;.;.;.:.;.;.;.;.;.;.-.s 9 9 3 o   n.e ",
"<.w 5.#.p t i t r i s s s s s s s s s s s s s s U U U p p i u u i i u p p p u u u u u U p U p U s s s s s s p u r 9 w 3 o   n.e ",
"1.e 4.#.i i p i i i i i i i i i i i i t i i i p t u u r r r r r w w r r i u w r r 9 9 t r t t r u e r r e r w 9 9 9 w 3 X   n.e ",
"3.e ;.o.r r y e r r t e e r r e e w w 8 q w e e r r r r r r q 8 e r r r r r r w r 8 7 8 8 9 8 9 8 8 8 8 8 8 8 8 8 8 7 2 X   n.e ",
"3.0 4 2 ; ; ; ; ; ; ; ; ; ; ; ; - ; - : ; ; ; - ; ; ; # ; ; ; # ; ; ; ; # # > # ; ; $ # # # # # # # # # # # # # # : : $ . X n.0 ",
"3.e . .               X . . . .     . X                         .       . . . .         . . . . . . . .     . .         . . n.e ",
"3.n.n.7.6.8.7.7.6.7.6.6.7.7.7.7.7.7.6.6.6.7.6.6.6.6.9.6.6.6.6.6.9.7.6.6.7.6.9.9.6.6.6.6.7.7.6.6.6.6.7.7.6.6.6.6.6.6.6.6.6.6.n.e ",
"0 0 0 0 0 0 0 0 0 0 0 0 0 0 0 0 0 7 0 0 0 0 0 0 0 0 0 0 0 0 0 0 0 0 0 0 0 0 0 0 0 0 0 0 0 0 0 0 0 0 0 0 0 0 0 0 0 0 4 0 0 0 0 4 "
};
